<?xml version="1.0" encoding="utf-8"?>
<!-- Generator: Adobe Illustrator 27.5.0, SVG Export Plug-In . SVG Version: 6.00 Build 0)  -->
<svg version="1.1" xmlns="http://www.w3.org/2000/svg" xmlns:xlink="http://www.w3.org/1999/xlink" x="0px" y="0px"
	 viewBox="0 0 750 500" style="enable-background:new 0 0 750 500;" xml:space="preserve">
<g id="BACKGROUND">
	<rect style="fill:#EDF0F7;" width="750" height="500"/>
</g>
<g id="OBJECTS">
	<g>
		<polygon style="fill:#FFFFFF;" points="371.436,99.932 366.809,99.49 366.313,96.749 363.176,96.501 363.176,92.269 
			364.528,90.227 367.012,95.406 368.907,92.766 		"/>
		<g>
			<g>
				<path style="fill:#292F44;" d="M687.979,339.806l-22.334,2.484l-34.926,8.407l-18.093-3.9l-3.79-4.618l-3.118,3.173
					l-5.124,0.221l-6.071,2.898l-2.787-4.342l-16.208,9.631l-9.41,8.748l-3.081,0.11l-8.637,8.352l-18.038-0.285l-19.271-8.352
					l-29.775-18.847l-24.826-16.373l-5.905,0.414l-22.821-15.83l-5.16-6.099l-8.803-4.424l-13.476-7.138l-6.982-3.44l4.7,4.985
					l4.755,0.883l7.046,5.648l0.837,5.087l8.003,4.995l5.51,6.292l15.315,15.159l10.891,5.491l11.268,6.926l-7.579,0.441
					l20.025,8.453l11.296,11.995l-20.632-13.963l-17.928-6.264l14.129,12.62l11.397,14.469l-16.851-16.143l-14.202-7.672
					l-6.926-4.01l-11.921-5.832l5.74,4.765l7.616,7.34l-8.269-3.826l-11.498-6.448l4.461,0.156l-7.607-7.717l-5.703-8.922
					l10.551,6.917l6.108,4.424l-3.155-6.614l14.147,6.264l-7.736-9.18l-7.101-7.028l-7.598-8.242l-10.118-7.763l-8.582-6.108
					l6.89,7.929l5.519,9.907l-11.949-12.556l5.022,6.577l6.558,9.907l-6.678-7.221l-6.503-6.687l-5.142-7.101l-4.792-2.934
					l0.589,2.99l8.104,8.922l12.657,12.924l-14.91-12.252l-12.28-12.473l-0.156,1.987l-2.493-1.361l-5.841-7.534l-6.163-3.541
					l-5.648,4.958l-8.371-8.039l-6.614-4.167l-4.194-4.645l-8.849-3.146l-5.74-4.25l3.477,7.101l11.195,16.897l-9.76-10.081
					l-2.355,0.028l7.101,10.192l12.344,14.211l9.759,8.472l12.639,7.819l7.579,8.407l7.377,9.815l5.078,8.711l-9.999-6.779
					l-1.03-2.695l1.509-1.15l-6.531-5.997l-7.294-0.515l-4.618-5.501l-9.64-2.198l11.59,9.014l10.008,14.589l-8.656,1.417
					l-8.959-1.039l-2.759,2.171l-15.591-6.586l-0.221-5.307l-3.173-7.754l-2.833-13.66l-9.741-13.052l-4.047,7.625l-0.754,3.716
					l-5.372-7.009l-3.523,3.293l-7.441-1.398l-6.807,3.992l-3.477-1.895l-13.191,4.581l3.762-4.967l8.067-2.714l7.828,0.037
					l6.678-3.836l9.686-3.091l6.816-6.209l3.449-8.048l-2.805-5.859l-0.938-5.298l-2.815,3.311l-1.417-2.079l-5.629,6.632
					l-8.656,4.314l7.524-6.246l6.043-8.003l5.859-6.246l1.37-12.51l-4.424,1.104l-0.285-4.921l7.469,3.293l5.022,6.853l0.092-2.934
					l7.957,6.871l-5.767-8.048l-9.263-7.432l-6.117-1.141l-7.957-1.619l-4.599-0.929l-5.326,9.254l-12.399,10.652l-2.502-3.983
					l-6.512,4.654l-7.745-0.975l-2.3-1.251l-2.493,2.806l-21.147,16.529l-11.728,6.614l-9.668,1.499l-12.353,10.431l-13.853-12.418
					l-15.324-11.645l-0.993-0.754l-0.736-1.693l0.11,6.209l2.18,0.589l0.874,7.092l2.226-0.037l0.441,4.847l4.047,2.668l0.478-5.942
					l8.058,8.536l0.791-4.424l14.487,14.276l22.692,10.127l21.368,3.247l21.598,25.296l-13.614-11.066l-4.829,0.074l5.197,13.163
					l-8.012-7.745l-4.176-6.42l-6.135-2.842l4.213,7.211l-7.8-6.393l-4.94,0.782l-11.075-12.712l-18.562-3.836l2.235,7.653
					l5.28,5.703l7.156,10.118l-8.085-7.635l6.135,9.465l-8.637-9.134l-7.064-9.29l-6.301-14.552l-4.737-4.13l-11.066-8.435
					l4.167,6.54l4.397,9.934l3.412,11.765l-5.519-10.67l-2.98-8.573l-5.096-7.368l0.037,7.359l-1.334,5.574l2.704,11.682
					l-4.001-6.945l-3.551,0.579l-0.515,5.767l-4.664,8.803l-11.986,11.139l4.737-14.625l3.33-8.941l3.413-6.034l-5.151-3.762
					l-6.568,0.809l9.088-7.165l-0.984-2.327l2.364-4.7l4.746-6.558l0.276-8.646l-2.309-3.505l0.147-10.311l-2.723-2.051
					l-3.955-7.763l-0.331,3.523l-2.502-1.196l-3.201-8.978l-17.081,18.415l-6.733,1.003l-1.003,3.275l-2.999,3.551l-0.368,5.823
					l-7.46,9.005l0.368,9.594l-2.723,2.53l-2.815-1.315l-0.745,4.783l-4.222-0.377l-12.565,29.067l-19.97,18.755l-9.18,28.386
					c-2.842,15.187-5.694,30.373-8.545,45.55c-0.534,2.198,16.438-22.306,16.438-22.306l5.648,5.657l6.365-8.72l12.013-8.72
					l3.072-5.657l7.533,11.314l6.365-4.71l8.426,12.225l8.343,8.039l9.355,14.441l24.412,10.882l7.727-0.616l19.933,4.783
					l29.085,0.717l4.378-2.852l9.355,1.325l7.423-8.242l4.682,1.426l9.152-13.935l6.917-1.831l1.83-3.661l4.976,2.539l20.172-18.222
					l8.223,12.289l8.131,1.325l6.292,5.887l18.71,10.477l18.82,6.908l17.008-15.315l3.808,6.108l6.402-9.014l8.315-6.908
					l2.695-5.804l2.107,5.905l7.809-8.656l4.7-3.505l5.51-12.51l6.706,5.206l7.303-10.413l1.702-3.698l1.904,1.499l8.003-6.503
					l2.704-2.806l5.804,9.106l8.61-4.351l2.097,4.305l2.907,3.302l2.005,10.403l3.698-1.499l8.508,11.71l5.602,7.405l3.505-2.3
					l16.327,8.646l12.657,3.146l23.014,2.456l3.992,17.413l21.662-10.192L594,426.437l-1.784-2.208l10.624-7.313l15.545-4.498
					l-0.258,6.88l23.106-9.815l4.673-9.088l7.046-6.117l5.519-6.54l6.034,6.374l7.984,10.955l4.802-5.225l2.465,4.93l27.117,5.933
					L687.979,339.806z M249.512,283.641l11.562-6.301l-12.859,11.654l1.555-3.882L249.512,283.641z M250.073,289.427l5.482-1.555
					l-0.432,2.548l-13.338,6.687L250.073,289.427z M252.4,300.336l21.966-24.155l5.694-0.092l-6.08,8.288L252.4,300.336z
					 M277.641,293.861l6.798-4.921l-1.637-2.603l3.082-1.352l4.728-5.252l5.74,0.865l-2.704,4.001l-1.444-1.637l-2.989,5.786
					l2.171,2.125l-9.502,2.796l-0.331,6.651l-6.807,6.126l5.353-8.297L277.641,293.861z M165.163,265.245l2.658,0.938l-0.258,7.938
					l-2.493-4.765L165.163,265.245z M107.802,337.065l6.328-8.959l9.401-6.899L107.802,337.065z M157.252,286.787l-4.452,8.03
					l-10.247,8.38l-11.038,13.117l6.255-9.971l6.788-7.313l7.589-6.604l2.208-8.38l-9.833,11.985l-8.738,6.273l17.826-21.855
					l4.562-21.497l0.57,10.44l-0.35,4.608l2.005,1.922l-3.698,3.21L157.252,286.787z"/>
			</g>
		</g>
		<path style="fill:#FFFFFF;" d="M268.24,337.222l13.614,11.066l-21.598-25.296l-21.368-3.247l-22.692-10.127l-14.487-14.276
			l-0.791,4.424l-8.058-8.536l-0.478,5.942l-4.047-2.668l-0.441-4.847l-2.226,0.037l-0.874-7.092l-2.18-0.589l-0.11-6.209
			l-5.721-13.218l-10.367-15.196l-3.928,4.231l3.201,8.978l2.502,1.196l0.331-3.523l3.955,7.763l2.723,2.051l-0.147,10.311
			l2.309,3.505l-0.276,8.646l-4.746,6.558l-2.364,4.7l0.984,2.327l-9.088,7.165l6.568-0.809l5.151,3.762l-3.413,6.034l-3.33,8.941
			l-4.737,14.625l11.986-11.139l4.664-8.803l0.515-5.767l3.551-0.579l4.001,6.945l-2.704-11.682l1.334-5.574l-0.037-7.359
			l5.096,7.368l2.98,8.573l5.519,10.67l-3.412-11.765l-4.397-9.934l-4.167-6.54l11.066,8.435l4.737,4.13l6.301,14.552l7.064,9.29
			l8.637,9.134l-6.135-9.465l8.085,7.635l-7.156-10.118l-5.28-5.703l-2.235-7.653l18.562,3.836l11.075,12.712l4.94-0.782l7.8,6.393
			l-4.213-7.211l6.135,2.842l4.176,6.42l8.012,7.745l-5.197-13.163L268.24,337.222z M210.621,310.022l-5.758-7.377l8.803,7.12
			L210.621,310.022z"/>
		<polygon style="fill:#FFFFFF;" points="123.531,321.207 107.802,337.065 114.13,328.106 		"/>
		<polygon style="fill:#FFFFFF;" points="156.7,279.134 157.252,286.787 152.8,294.817 142.553,303.197 131.515,316.314 
			137.77,306.343 144.559,299.03 152.147,292.426 154.355,284.046 144.522,296.031 135.783,302.305 153.61,280.449 158.172,258.953 
			158.742,269.393 158.393,274.001 160.398,275.924 		"/>
		<g>
			<polygon style="fill:#292F44;" points="213.666,309.765 210.621,310.022 204.863,302.645 			"/>
		</g>
		<polygon style="fill:#FFFFFF;" points="167.821,266.183 167.564,274.121 165.071,269.356 165.163,265.245 		"/>
		<polygon style="fill:#FFFFFF;" points="280.06,276.089 273.979,284.377 252.4,300.336 274.366,276.181 		"/>
		<polygon style="fill:#FFFFFF;" points="255.555,287.872 255.123,290.42 241.785,297.108 250.073,289.427 		"/>
		<polygon style="fill:#FFFFFF;" points="248.215,288.995 249.769,285.113 249.512,283.641 261.074,277.34 		"/>
		<polygon style="fill:#FFFFFF;" points="296.35,280.597 293.646,284.598 292.201,282.961 289.212,288.746 291.383,290.871 
			281.881,293.667 281.55,300.318 274.743,306.444 280.096,298.147 277.641,293.861 284.438,288.94 282.801,286.336 
			285.882,284.984 290.61,279.732 		"/>
		<g>
			<g>
				<path style="fill:#373D52;" d="M660.467,327.223l-24.247-13.678l6.678,13.2l13.31,13.586l-5.951-0.184l-6.917-6.476
					l1.398,10.072l-4.82-12.179l-8.674-12.519l-4.112-2.98l-0.313-5.813l-8.766-1.693l-7.239-9.079l0.929,3.845l-4.231-2.152
					l-5.85-9.309l-2.382,2.842l-5.62-4.231l-2.925-6.77l-0.386,4.388l-8.389-11.351l-3.045-2.198l5.593-5.731l9.861,7.727
					l-24.606-45.274l-6.172,2.18l-2.806-1.84h-3.477l-10.449-17.109l-7.543-10.054l-9.281,6.283l-4.351,0.773l-3.183,2.511
					l-3.873-3.376l-12.179,9.759h-5.225l-6.862,4.066l-0.69-1.076l-0.432,3.56l-3.882-6.476l-6.715-5.473l-3.983-9.759l-3.091-1.987
					l-0.543-6.025l-2.594-3.882l3.284,1.545l0.304-4.489v-0.009l-0.414-2.474l2.971-5.951l-12.546-10.79l-8.748-9.014l-16.079-2.143
					l-7.257-9.667l-5.482-13.209l-9.281-8.564l0.727,2.944l4.93,4.369l0.074,3.394l6.678,13.301l3.505,3.183l3.817,6.365
					l5.344,2.677l9.428,9.033l6.549,7.579l0.451,7.064h-3.753l-0.386-5.988l-2.861-1.904l-10.247-9.999l-2.612-4.323l-6.935,2.033
					l1.012,2.484l-2.355,1.913l2.355,2.861l0.763,7.129l-4.01,1.785l-7.441-0.57l-2.612-9.171l-6.301,5.602l-4.397-2.162
					l-3.367,1.398l-6.816-3.118l7.763-2.355l6.43,2.419l7.009-4.139l0.12-3.505l2.741-3.946l-0.745-2.3l-4.415-0.478l-1.564-16.52
					l1.076-8.785l-2.732-2.3l-2.76-1.049l-5.142-7.092l-3.707-5.804l-3.385-3.229l-5.924-10.983l-5.721-3.624l-2.53-4.949
					l-3.937-1.904l-6.347-6.972l0.23-3.468l-2.824-3.183l-2.732-1.904l-13.742,14.377l-3.265,0.81l-4.802,6.623l-5.537,7.442
					l-2.079,0.267l-4.176,8.711l-4.535,10.698l-2.907,0.911l-3.532,4.351l0.727,4.36l-4.268,7.34l-0.267,12.97l-2.907,3.541
					l-5.087,11.857l-4.25,11.627l-5.786,6.577l-5.16,12.813l-6.577-4.139l-6.834,6.126l-8.223,0.396l-8.389,7.773l-8.058,1.131
					l-5.896,5.271l-8.444,0.23l-8.683-6.779l-7.938,0.8l-6.402,11.682l-3.063,0.616l-4.36,9.198l-5.307,2.125l-4.185,10.505
					l-6.926,6.42l-8.159,11.562l-8.38,9.677l15.324,11.645l13.853,12.418l12.353-10.431l9.668-1.499l11.728-6.614l21.147-16.529
					l2.493-2.806l2.3,1.251l7.745,0.975l6.512-4.654l2.502,3.983l12.399-10.652l5.326-9.254l4.599,0.929l-7.147-5.758l-5.216-8.858
					l-3.486-7.478l3.615-1.223l7.699-4.047l6.172,0.368l9.75-7.267l4.038-0.386l0.607-2.171l7.892-7.92l1.803,2.741l4.075,0.515
					l2.171,1.858l1.49-1.665l7.064-0.359l3.247,0.175l3.688-4.48l0.883-4.314l1.168-5.307l4.323-6.522l-6.19,1.564l-0.101,3.155
					l-0.441,2.088l-1.637-0.727l-0.543-3.882l-2.723,1.941l1.61-5.427l-0.874-6.761l-1.021-6.273l1.6-3.265l-2.548-4.461
					l-3.155-9.769l4.176-9.695l5.317,6.871l5.887,6.485l4.148,1.6l1.417,2.171l5.307,2.695l6.724,7.947l3.072,10.311l4.176,0.037
					l1.683,6.117l5.142,2.539l8.039,5.933l1.49,4.48l-3.229-1.177l1.058,7.101l-3.578,0.019l-9.539-4.148l4.921,6.706l4.71,8.996
					l6.209,4.673l-3.698-0.055l-5.234-1.361l2.125,4.084l-8.757-6.246l3.872,5.261l0.046,3.219l-14.202-13.356l6.503,8.131
					l18.811,19.822l9.309,9.741l3.734,8.168l-3.569-0.763l-3.155-6.016l-6.724-2.667l-2.87-0.313l-12.767-7.515l4.047,5.363
					l-7.469-1.334l3.072,3.321l3.201,6.844l-8.444-8.757l-14.552-0.359l-2.438-5.271l-6.135-10.615l-12.62-12.528l-1.361,2.502
					l-5.914-7.092l-4.24-5.289l-4.424,5.666l-3.698,1.343L337.678,228l1.996,3.836l8.665,5.648l0.294,2.327l3.597,2.373l5.611,9.897
					l12.197,2.603l4.691,14.368l-1.527,0.745l-9.75-9.502l1.251,5.675l-6.282-4.838l0.616,4.829l-4.296-5.896l7.009,16.373
					l-17.219-11.222l7.175,8.26l9.52,4.415l6.485,2.336l14.92,4.645l15.398,4.323l1.315,1.398l6.982,3.44l13.476,7.138l8.803,4.424
					l5.16,6.099l22.821,15.83l5.905-0.414l24.826,16.373l29.775,18.847l19.271,8.352l18.038,0.285l8.637-8.352l3.081-0.11
					l9.41-8.748l16.208-9.631l2.787,4.342l6.071-2.898l5.124-0.221l3.118-3.173l3.79,4.618l18.093,3.9l34.926-8.407l22.334-2.484
					L660.467,327.223z M216.839,284.248l-5.298-0.92l-11.47,4.599l12.179-7.074l5.942-1.131L216.839,284.248z M221.622,260.434
					l-3.679-5.73l5.73,4.746L221.622,260.434z M232.798,221.865l7.644-0.212l-3.035,4.388l-4.323,0.708l-4.673,2.474
					L232.798,221.865z M244.692,228.451l-2.336,5.234l-10.477,6.65l6.936-9.272L244.692,228.451z M247.166,263.975l-11.82,2.897
					l-9.051-7.993l7,3.045l6.089,2.125l12.105-6.66l2.263,0.855L247.166,263.975z M275.552,246.921l-7.083,7.993l6.512-10.964
					l7.57-14.156L275.552,246.921z M329.942,146.117l3.781-5.427l-3.882,9.152L329.942,146.117z M326.502,175.698l-5.97,6.467
					l-5.767,3.431L326.502,175.698z M325.904,180.371l-4.029,7.819l-2.98,1.941l1.785-4.434L325.904,180.371z M316.402,188.337
					l-1.794,4.48l-3.477,2.042L316.402,188.337z M322.225,209.686l-5.767,4.673l10.992-15.021L322.225,209.686z M327.597,193.663
					l-11.194,13.485l-3.983,8.012l-4.323,3.284l7.165-12.243l-5.28,4.875l-4.673,7.865l-7.119,3.983l3.633-7.414l9.851-8.315
					l14.386-14.524l4.176-1.941L327.597,193.663z M332.223,184.455l3.385-4.728l1.398-4.976l0.147,6.365L332.223,184.455z
					 M346.711,150.44l-6.724,10.008l-0.791,6.319l-0.147-8.757l6.917-8.757l-0.552-8.711l3.633-6.871l0.101,6.467L346.711,150.44z
					 M351.292,194.16l0.441,6.77l-2.29,3.081L351.292,194.16z M363.176,92.269l1.352-2.042l2.483,5.179l1.895-2.64l2.53,7.166
					l-4.627-0.442l-0.497-2.741l-3.137-0.248V92.269z M353.978,115.21l3.679-6.016l3.735,0.69l10.744-5.225l6.126,9.805
					l-2.934-0.892l-5.878-4.728l-9.999,6.365l5.271,12.445l0.101,6.862l-2.391,2.539l-6.071-6.77l-0.294-12.593L353.978,115.21z
					 M371.583,134.71l-0.616,2.024l-5.05-2.723L371.583,134.71z M361.502,144.056l3.008,4.259l-8.242-7.819l1.978,4.305
					l-3.385-2.217l1.527-10.348l4.93,6.154l3.652-1.656l7.837,7.782l-6.099,2.447L361.502,144.056z M368.612,147.883l4.378-1.996
					l2.051,2.024L368.612,147.883z M379.273,162.306l-5.574-1.665l-2.695-2.346l7.147,1.573l1.343-0.837l4.618,1.545l2.015,4.415
					L379.273,162.306z M391.415,136.844l-2.373-3.541l6.88-0.276L391.415,136.844z M393.374,143.21
					c-0.055-0.028-0.11-0.046-0.175-0.074l0.166-0.202l-0.129-5.022l3.753,0.653l-3.624,4.369L393.374,143.21z M401.874,133.165
					l4.434-0.276l-5.74,3.403L401.874,133.165z M392.353,281.94l0.386,3.091l-6.724-9.198l-2.622-6.724l2.097-0.478l-2.622-4.48
					l7.773,6.77l8.582-0.901l3.238,3.762l-7.386-0.947l6.963,6.862l6.053,9.198L392.353,281.94z M549.057,228.847l3.265,4.654
					l3.817,0.892l1.03,4.148l2.741,5.215l-5.823-1.067l-6.807-6.623l-1.674-7.92L549.057,228.847z M540.336,236.067l1.959,10.532
					l-2.704-6.752l-3.909-4.617l-4.663-6.715L540.336,236.067z M537.586,239.103l-1.904,1.996l2.327,2.898l4.194,11.176
					l-5.961-10.854l-4.995-5.123l-3.725-5.501L537.586,239.103z M524.773,248.044l6.715,3.265l8.619,6.016l-9.41-2.99l-5.087-2.934
					l-1.205,9.971l-0.561-10.854L524.773,248.044z M515.501,230.429l-4.94-1.867L510,233.409l-1.582-9.778L515.501,230.429z
					 M491.824,246.001l8.849,13.19l4.949,10.679l0.221,4.893l-8.398-9.456l4.397,8.959l2.116,10.173l-11.912-23.309l-4.562-8.509
					l-5.169-6.062l-1.113-6.899l2.447,3.109l3.118,6.788l5.114,4.783l-4.167-7.561l-0.837-3.505L491.824,246.001z M487.483,233.363
					l-3.458,1.26l-1.371,4.029l-5.188-6.494L487.483,233.363z M460.338,193.69l8.361,14.331l3.238,3.79l1.15,2.189l4.424,2.833
					l3.137,12.298l-4.829,0.846l-9.502-6.319l-0.552-4.884l2.346,0.101l-3.79-10.403l-4.774-9.851L460.338,193.69z M445.4,188.503
					l-4.148-2.769l1.784,6.163l-4.719-6.963l-1.205-4.608L445.4,188.503z M434.923,207.837l4.139,0.975l-7.598,2.244l0.579-2.76
					l-2.125-5.639L434.923,207.837z M405.341,212.676l2.125-6.853l4.949,3.449l-0.11-3.679l4.259,0.865l7.313,5.979l-0.12,4.553
					l-8.978,1.72L405.341,212.676z M506.79,304.374l-3.477,8.766l-7.533-11.01l0.221-7.533l-7.396-6.301l-0.074,4.489l-8.683-6.807
					l4.995,7.534l10.072,19.556l-4.498-2.686l-5.427-5.215l-9.566-2.53l-5.353-4.13l-0.294-2.171l-11.949-8.84l14.92,23.906
					l-13.181-9.64l2.171,6.954l-7.607-5.363l-2.392-10.569l-7.018-3.771l-3.698-3.762l-1.444,2.971l-4.13,0.432l-7.975-8.186
					l-7.092-14.773l3.551-5.215l0.579-2.824l2.824,3.109l5.795,1.527l-3.118-7.966l4.562-0.947l-8.766-6.88l3.192,9.125
					l-7.984-7.883l1.959,5.261l-11.526-8.232l-5.694-5.261l-1.343-6.163l5.887-0.534l-0.046-1.858l5.593-6.273l2.3,1.15l4.921-3.008
					l1.297-3.495l5.832,8.039l6.65,6.834l12.197,11.866l1.389,8.61l-3.21-3.164l-6.025-1.573l-3.827,2.778l4.544,3.918l5.979,0.717
					l-0.432-1.959l4.158,0.432l3.836,3.394l4.783,2.29l7.598,1.196l3.781,4.02l6.071,4.066l3.109,6.89l3.689-1.417l5.933,8.049
					l7.101,7.46l9.704,5.427l-1.738,2.75L506.79,304.374z M527.827,340.294l-1.297,6.512l-3.091-6.375l-3.293-2.06l-10.155-20.448
					l-1.095-9.327l7.064,10.293v3.495l4.866,9.603l-0.754-8.021l6.246,12.418l-0.957-9.539l4.94,9.944l1.509,9.06L527.827,340.294z
					 M555.403,350.716l-5.28-5.832l-3.909-5.068l-4.526-1.72l-3.155-5.215l-8.095-6.862l-4.599-1.297l-3.229-4.599v-10.431
					l-8.214-20.006l-0.534-11.884l-1.876,4.7l-2.695-10.679l3.357-0.331l-5.298-6.513l-2.686-3.9l9.198,4.636l5.188,7.625
					l3.909,7.129l4.728,2.953l10.431,2.953l3.081-1.784l9.539,8.021l-3.219,1.582l-7.34-6.108l-0.616,3.983l-6.181-4.535
					l-3.569,2.888l-4.94-6.724l-0.202,10.155l-3.219-2.75l2.401,8.03l7.202,16.392l-6.384-8.435l5.28,13.172l5.215,4.737
					l10.091,8.775l7.478,9.198l7.405,11.525L555.403,350.716z M556.967,330.268l3.357,6.972l-6.218-4.627l-2.088-8.692
					l-4.884-10.836l-6.025-6.982l9.704,5.832l2.658-7.671l3.109,14.395l-3.357-1.334l7.607,11.167l-2.916-7.865l11.222,16.87
					L556.967,330.268z M588.067,324.822l5.427-4.47l1.407,17.256l-9.106-5.169l-5.878-9.631l-1.656,2.714l-5.611-0.607l-5.602-7.626
					l-7.975-15.941l8.757-11.47l-3.762,1.223l-3.762-6.742l-9.024-5.344l8.058-0.966l-5.344-15.416l6.485,6.393l6.742,12.436
					l8.582-1.131l-5.077,5.602l1.141,4.296l5.427-6.66l-2.189,8.407l-2.898,10.596l22.867,1.932l-8.058,8.141L588.067,324.822z"/>
			</g>
		</g>
		<polygon style="fill:#FFFFFF;" points="650.257,340.147 643.34,333.671 644.738,343.743 639.918,331.565 631.244,319.046 
			627.132,316.065 626.819,310.252 618.053,308.56 610.814,299.481 611.743,303.326 607.512,301.173 601.662,291.865 
			599.28,294.707 593.659,290.476 590.734,283.706 590.348,288.093 581.959,276.742 578.914,274.544 584.507,268.814 
			594.368,276.54 597.127,281.618 607.374,291.239 634.105,312.349 636.22,313.545 642.898,326.745 656.208,340.331 		"/>
		<polygon style="fill:#FFFFFF;" points="493.673,223.383 493.241,226.943 489.359,220.467 482.644,214.994 478.661,205.234 
			475.571,203.247 475.028,197.223 472.434,193.341 475.718,194.886 476.022,190.397 477.181,197.397 		"/>
		<polygon style="fill:#FFFFFF;" points="460.688,188.484 456.935,188.484 456.549,182.496 453.688,180.592 443.441,170.593 
			440.829,166.27 433.893,168.303 434.905,170.786 432.55,172.7 434.905,175.561 435.668,182.689 431.658,184.474 424.216,183.903 
			421.604,174.733 415.303,180.334 410.906,178.173 407.54,179.571 400.724,176.453 408.487,174.098 414.917,176.517 
			421.926,172.378 422.046,168.873 424.787,164.927 424.042,162.628 419.626,162.149 418.063,145.629 419.139,136.844 
			416.407,134.545 413.647,133.496 408.506,126.404 404.799,120.6 401.414,117.372 395.49,106.389 389.768,102.765 387.239,97.816 
			383.302,95.912 376.955,88.939 377.185,85.472 374.361,82.289 381.518,87.274 390.587,98.975 404.477,115.017 419.176,128.566 
			419.185,128.575 419.911,131.519 424.842,135.888 424.915,139.282 431.593,152.583 435.098,155.766 438.915,162.131 
			444.26,164.808 453.688,173.84 460.237,181.42 		"/>
		<polygon style="fill:#FFFFFF;" points="282.552,229.794 275.552,246.921 268.47,254.915 274.982,243.95 		"/>
		<polygon style="fill:#FFFFFF;" points="244.692,228.451 242.356,233.685 231.879,240.335 238.814,231.063 		"/>
		<polygon style="fill:#FFFFFF;" points="240.442,221.654 237.407,226.041 233.084,226.749 228.411,229.224 232.798,221.865 		"/>
		<polygon style="fill:#FFFFFF;" points="253.752,258.245 247.166,263.975 235.346,266.873 226.295,258.879 233.295,261.924 
			239.384,264.049 251.489,257.389 		"/>
		<polygon style="fill:#FFFFFF;" points="223.674,259.449 221.622,260.434 217.943,254.703 		"/>
		<polygon style="fill:#FFFFFF;" points="218.191,279.723 216.839,284.248 211.541,283.328 200.071,287.928 212.249,280.854 		"/>
		<polygon style="fill:#FFFFFF;" points="330.237,190.729 327.597,193.663 316.402,207.148 312.419,215.159 308.096,218.443 
			315.262,206.2 309.982,211.075 305.309,218.94 298.19,222.923 301.823,215.509 311.674,207.194 326.061,192.669 		"/>
		<polygon style="fill:#FFFFFF;" points="327.45,199.338 322.225,209.686 316.458,214.359 		"/>
		<polygon style="fill:#FFFFFF;" points="325.904,180.371 321.875,188.19 318.895,190.131 320.68,185.697 		"/>
		<polygon style="fill:#FFFFFF;" points="316.402,188.337 314.609,192.817 311.132,194.859 		"/>
		<polygon style="fill:#FFFFFF;" points="326.502,175.698 320.532,182.165 314.765,185.596 		"/>
		<polygon style="fill:#FFFFFF;" points="337.154,181.116 332.223,184.455 335.608,179.727 337.007,174.751 		"/>
		<polygon style="fill:#FFFFFF;" points="351.733,200.93 349.443,204.011 351.292,194.16 		"/>
		<polygon style="fill:#FFFFFF;" points="349.148,140.138 346.711,150.44 339.987,160.448 339.196,166.767 339.049,158.01 
			345.966,149.253 345.414,140.542 349.047,133.671 		"/>
		<polygon style="fill:#FFFFFF;" points="333.723,140.689 329.841,149.842 329.942,146.117 		"/>
		<polygon style="fill:#FFFFFF;" points="378.261,114.465 375.327,113.573 369.449,108.845 359.451,115.21 364.721,127.655 
			364.822,134.517 362.431,137.056 356.36,130.286 356.066,117.693 353.978,115.21 357.657,109.194 361.392,109.884 372.135,104.66 
					"/>
		<polygon style="fill:#FFFFFF;" points="480.648,229.132 475.819,229.978 466.317,223.659 465.765,218.774 468.111,218.876 
			464.321,208.472 459.547,198.621 460.338,193.69 468.7,208.021 471.938,211.811 473.087,214 477.512,216.833 		"/>
		<polygon style="fill:#FFFFFF;" points="487.483,233.363 484.024,234.623 482.654,238.652 477.466,232.158 		"/>
		<polygon style="fill:#FFFFFF;" points="559.911,243.757 554.088,242.69 547.281,236.067 545.607,228.148 549.057,228.847 
			552.322,233.501 556.139,234.393 557.17,238.542 		"/>
		<polygon style="fill:#FFFFFF;" points="542.204,255.172 536.243,244.318 531.248,239.195 527.523,233.694 537.586,239.103 
			535.682,241.099 538.009,243.996 		"/>
		<polygon style="fill:#FFFFFF;" points="542.296,246.599 539.591,239.848 535.682,235.23 531.019,228.516 540.336,236.067 		"/>
		<polygon style="fill:#FFFFFF;" points="515.501,230.429 510.561,228.561 510,233.409 508.418,223.631 		"/>
		<polygon style="fill:#FFFFFF;" points="540.107,257.325 530.697,254.335 525.61,251.401 524.405,261.372 523.844,250.518 
			524.773,248.044 531.488,251.309 		"/>
		<polygon style="fill:#FFFFFF;" points="501.841,274.268 503.957,284.441 492.045,261.133 487.483,252.624 482.313,246.563 
			481.2,239.664 483.647,242.773 486.765,249.561 491.879,254.344 487.713,246.783 486.876,243.279 491.824,246.001 
			500.673,259.192 505.622,269.871 505.843,274.765 497.444,265.309 		"/>
		<path style="fill:#FFFFFF;" d="M452.851,346.724l17.928,6.264l20.632,13.963l-11.296-11.995l-20.025-8.453l7.579-0.441
			l-11.268-6.926l-10.891-5.491l-15.315-15.159l-5.51-6.292l-8.003-4.995l-0.837-5.087l-7.046-5.648l-4.755-0.883l-4.7-4.985
			l-1.315-1.398l-15.398-4.323l-14.92-4.645l-6.485-2.336l-9.52-4.415l-7.175-8.26l17.219,11.222l-7.009-16.373l4.296,5.896
			l-0.616-4.829l6.282,4.838l-1.251-5.675l9.75,9.502l1.527-0.745l-4.691-14.368l-12.197-2.603l-5.611-9.897l-3.597-2.373
			l-0.294-2.327l-8.665-5.648L337.678,228l-8.104-11.314l3.698-1.343l4.424-5.666l4.24,5.289l5.914,7.092l1.361-2.502l12.62,12.528
			l6.135,10.615l2.438,5.271l14.552,0.359l8.444,8.757l-3.201-6.844l-3.072-3.321l7.469,1.334l-4.047-5.363l12.767,7.515l2.87,0.313
			l6.724,2.667l3.155,6.016l3.569,0.763l-3.734-8.168l-9.309-9.741l-18.811-19.822l-6.503-8.131l14.202,13.356l-0.046-3.219
			l-3.872-5.261l8.757,6.246l-2.125-4.084l5.234,1.361l3.698,0.055l-6.209-4.673l-4.71-8.996l-4.921-6.706l9.539,4.148l3.578-0.019
			l-1.058-7.101l3.229,1.177l-1.49-4.48l-8.039-5.933l-5.142-2.539l-1.683-6.117l-4.176-0.037l-3.072-10.311l-6.724-7.947
			l-5.307-2.695l-1.417-2.171l-4.148-1.6l-5.887-6.485l-5.317-6.871l-4.176,9.695l3.155,9.769l2.548,4.461l-1.6,3.265l1.021,6.273
			l0.874,6.761l-1.61,5.427l2.723-1.941l0.543,3.882l1.637,0.727l0.441-2.088l0.101-3.155l6.19-1.564l-4.323,6.522l-1.168,5.307
			l-0.883,4.314l-3.688,4.48l-3.247-0.175l-7.064,0.359l-1.49,1.665l-2.171-1.858l-4.075-0.515l-1.803-2.741l-7.892,7.92
			l-0.607,2.171l-4.038,0.386l-9.75,7.267l-6.172-0.368l-7.699,4.047l-3.615,1.223l3.486,7.478l5.216,8.858l7.147,5.758l7.957,1.619
			l6.117,1.141l9.263,7.432l5.767,8.048l-7.957-6.871l-0.092,2.934l-5.022-6.853l-7.469-3.293l0.285,4.921l4.424-1.104l-1.37,12.51
			l-5.859,6.246l-6.043,8.003l-7.524,6.246l8.656-4.314l5.629-6.632l1.417,2.079l2.815-3.311l0.938,5.298l2.805,5.859l-3.449,8.048
			l-6.816,6.209l-9.686,3.091l-6.678,3.836l-7.828-0.037l-8.067,2.714l-3.762,4.967l13.191-4.581l3.477,1.895l6.807-3.992
			l7.441,1.398l3.523-3.293l5.372,7.009l0.754-3.716l4.047-7.625l9.741,13.052l2.833,13.66l3.173,7.754l0.221,5.307l15.591,6.586
			l2.759-2.171l8.959,1.039l8.656-1.417l-10.008-14.589l-11.59-9.014l9.64,2.198l4.618,5.501l7.294,0.515l6.531,5.997l-1.509,1.15
			l1.03,2.695l9.999,6.779l-5.078-8.711l-7.377-9.815l-7.579-8.407l-12.639-7.819l-9.759-8.472l-12.344-14.211l-7.101-10.192
			l2.355-0.028l9.76,10.081l-11.195-16.897l-3.477-7.101l5.74,4.25l8.849,3.146l4.194,4.645l6.614,4.167l8.371,8.039l5.648-4.958
			l6.163,3.541l5.841,7.534l2.493,1.361l0.156-1.987l12.28,12.473l14.91,12.252l-12.657-12.924l-8.104-8.922l-0.589-2.99
			l4.792,2.934l5.142,7.101l6.503,6.687l6.678,7.221l-6.558-9.907l-5.022-6.577l11.949,12.556l-5.519-9.907l-6.89-7.929l8.582,6.108
			l10.118,7.763l7.598,8.242l7.101,7.028l7.736,9.18l-14.147-6.264l3.155,6.614l-6.108-4.424l-10.551-6.917l5.703,8.922l7.607,7.717
			l-4.461-0.156l11.498,6.448l8.269,3.826l-7.616-7.34l-5.74-4.765l11.921,5.832l6.926,4.01l14.202,7.672l16.851,16.143
			l-11.397-14.469L452.851,346.724z M383.339,184.281l4.241,1.628l1.398,4.949l-7.441-6.227l-5.639-6.283L383.339,184.281z
			 M377.755,187.951l-2.907-5.234l-3.201-3.081l5.353,2.033l8.6,8.545l8.205,9.943l-8.545-4.939l-6.687-3.431l-8.38-5.408
			L377.755,187.951z"/>
		<g>
			<polygon style="fill:#373D52;" points="393.807,200.157 385.261,195.217 378.574,191.786 370.194,186.378 377.755,187.951 
				374.849,182.717 371.648,179.635 377.001,181.668 385.602,190.214 			"/>
		</g>
		<g>
			<polygon style="fill:#373D52;" points="388.977,190.857 381.536,184.63 375.897,178.348 383.339,184.281 387.579,185.909 			"/>
		</g>
		<polygon style="fill:#FFFFFF;" points="366.708,146.963 361.502,144.056 364.51,148.315 356.268,140.496 358.246,144.801 
			354.861,142.584 356.388,132.236 361.318,138.39 364.97,136.734 372.807,144.516 		"/>
		<polygon style="fill:#FFFFFF;" points="375.042,147.91 368.612,147.883 372.991,145.887 		"/>
		<polygon style="fill:#FFFFFF;" points="371.583,134.71 370.967,136.734 365.917,134.011 		"/>
		<polygon style="fill:#FFFFFF;" points="386.126,164.992 379.273,162.306 373.699,160.641 371.004,158.295 378.151,159.868 
			379.494,159.031 384.111,160.576 		"/>
		<polygon style="fill:#FFFFFF;" points="396.989,138.565 393.365,142.934 393.236,137.912 		"/>
		<polygon style="fill:#FFFFFF;" points="406.307,132.889 400.567,136.293 401.874,133.165 		"/>
		<polygon style="fill:#FFFFFF;" points="395.922,133.027 391.415,136.844 389.042,133.303 		"/>
		<polygon style="fill:#FFFFFF;" points="392.353,281.94 392.74,285.03 386.016,275.832 383.394,269.108 385.491,268.629 
			382.87,264.15 390.642,270.92 399.224,270.018 402.462,273.781 395.076,272.833 402.039,279.695 408.092,288.893 		"/>
		<path style="fill:#FFFFFF;" d="M507.222,297.2l-9.704-5.427l-7.101-7.46l-5.933-8.049l-3.689,1.417l-3.109-6.89l-6.071-4.066
			l-3.781-4.02l-7.598-1.196l-4.783-2.29l-3.836-3.394l-4.158-0.432l0.432,1.959l-5.979-0.717l-4.544-3.918l3.827-2.778l6.025,1.573
			l3.21,3.164l-1.389-8.61L436.846,234.2l-6.65-6.834l-5.832-8.039l-1.297,3.495l-4.921,3.008l-2.3-1.15l-5.593,6.273l0.046,1.858
			l-5.887,0.534l1.343,6.163l5.694,5.261l11.526,8.232l-1.959-5.261l7.984,7.883l-3.192-9.125l8.766,6.88l-4.562,0.947l3.118,7.966
			l-5.795-1.527l-2.824-3.109l-0.579,2.824l-3.551,5.215l7.092,14.773l7.975,8.186l4.13-0.432l1.444-2.971l3.698,3.762l7.018,3.771
			l2.392,10.569l7.607,5.363l-2.171-6.954l13.181,9.64l-14.92-23.906l11.949,8.84l0.294,2.171l5.353,4.13l9.566,2.53l5.427,5.215
			l4.498,2.686l-10.072-19.556l-4.995-7.534l8.683,6.807l0.074-4.489l7.396,6.301l-0.221,7.533l7.533,11.01l3.477-8.766
			l-1.306-4.424L507.222,297.2z M482.525,300.097l-10.652-6.522l-2.024-6.301l4.93,5.216l1.15-2.53l-3.909-9.419l4.857,7.386
			l1.371,5.868L482.525,300.097z"/>
		<g>
			<polygon style="fill:#373D52;" points="482.525,300.097 471.873,293.576 469.849,287.275 474.78,292.49 475.93,289.961 
				472.02,280.541 476.877,287.928 478.248,293.796 			"/>
		</g>
		<polygon style="fill:#FFFFFF;" points="531.81,345.85 527.827,340.294 526.53,346.806 523.439,340.432 520.146,338.371 
			509.991,317.923 508.896,308.596 515.961,318.889 515.961,322.385 520.827,331.988 520.073,323.967 526.318,336.385 
			525.362,326.846 530.301,336.789 		"/>
		<polygon style="fill:#FFFFFF;" points="560.141,354.496 555.403,350.716 550.124,344.884 546.214,339.816 541.689,338.095 
			538.534,332.88 530.439,326.018 525.84,324.721 522.611,320.122 522.611,309.691 514.397,289.685 513.864,277.8 511.987,282.501 
			509.292,271.821 512.649,271.49 507.351,264.978 504.665,261.078 513.864,265.714 519.052,273.339 522.961,280.468 
			527.689,283.421 538.12,286.373 541.201,284.589 550.74,292.61 547.52,294.192 540.18,288.084 539.564,292.067 533.383,287.532 
			529.814,290.42 524.874,283.696 524.672,293.851 521.452,291.101 523.853,299.131 531.055,315.523 524.672,307.088 
			529.952,320.26 535.167,324.997 545.258,333.772 552.736,342.971 		"/>
		<polygon style="fill:#FFFFFF;" points="423.876,212.437 423.757,216.99 414.779,218.71 405.341,212.676 407.466,205.823 
			412.415,209.272 412.304,205.593 416.563,206.458 		"/>
		<polygon style="fill:#FFFFFF;" points="431.465,211.057 432.044,208.297 429.919,202.659 434.923,207.837 439.063,208.813 		"/>
		<polygon style="fill:#FFFFFF;" points="441.252,185.734 443.036,191.897 438.317,184.934 437.112,180.325 445.4,188.503 		"/>
		<polygon style="fill:#FFFFFF;" points="556.967,330.268 560.325,337.24 554.107,332.613 552.018,323.921 547.134,313.085 
			541.109,306.104 550.813,311.935 553.472,304.264 556.581,318.659 553.223,317.326 560.831,328.492 557.915,320.628 
			569.137,337.498 		"/>
		<polygon style="fill:#FFFFFF;" points="593.494,320.352 594.901,337.608 585.795,332.439 579.917,322.808 578.261,325.521 
			572.65,324.914 567.049,317.289 559.074,301.348 567.83,289.878 564.068,291.101 560.306,284.359 551.283,279.014 559.34,278.049 
			553.996,262.632 560.481,269.025 567.223,281.461 575.805,280.33 570.728,285.932 571.868,290.227 577.295,283.568 
			575.106,291.975 572.209,302.571 595.076,304.503 587.018,312.644 588.067,324.822 		"/>
	</g>
</g>
</svg>
